<svg width="17" height="14" viewBox="0 0 17 14" fill="none" xmlns="http://www.w3.org/2000/svg">
<path d="M1.36667 13.72C1.12111 13.72 0.915422 13.6309 0.7496 13.4526C0.5832 13.2749 0.5 13.0545 0.5 12.7914V1.64857C0.5 1.38548 0.5832 1.16479 0.7496 0.986501C0.915422 0.808835 1.12111 0.720001 1.36667 0.720001H4.24833C4.49389 0.720001 4.69987 0.808835 4.86627 0.986501C5.03209 1.16479 5.115 1.38548 5.115 1.64857V12.7914C5.115 13.0545 5.03209 13.2749 4.86627 13.4526C4.69987 13.6309 4.49389 13.72 4.24833 13.72H1.36667ZM6.84833 13.72C6.60278 13.72 6.39709 13.6309 6.23127 13.4526C6.06487 13.2749 5.98167 13.0545 5.98167 12.7914V1.64857C5.98167 1.38548 6.06487 1.16479 6.23127 0.986501C6.39709 0.808835 6.60278 0.720001 6.84833 0.720001H9.73C9.97556 0.720001 10.1815 0.808835 10.3479 0.986501C10.5138 1.16479 10.5967 1.38548 10.5967 1.64857V12.7914C10.5967 13.0545 10.5138 13.2749 10.3479 13.4526C10.1815 13.6309 9.97556 13.72 9.73 13.72H6.84833ZM12.33 13.72C12.0844 13.72 11.8788 13.6309 11.7129 13.4526C11.5465 13.2749 11.4633 13.0545 11.4633 12.7914V1.64857C11.4633 1.38548 11.5465 1.16479 11.7129 0.986501C11.8788 0.808835 12.0844 0.720001 12.33 0.720001H15.2117C15.4572 0.720001 15.6632 0.808835 15.8296 0.986501C15.9954 1.16479 16.0783 1.38548 16.0783 1.64857V12.7914C16.0783 13.0545 15.9954 13.2749 15.8296 13.4526C15.6632 13.6309 15.4572 13.72 15.2117 13.72H12.33Z" fill="white"/>
</svg>
