<svg width="15" height="21" viewBox="0 0 15 21" fill="none" xmlns="http://www.w3.org/2000/svg">
<path d="M7.50879 0.859985C9.3653 0.859985 11.1458 1.59748 12.4585 2.91024C13.7713 4.22299 14.5088 6.00347 14.5088 7.85999C14.5088 10.24 13.3188 12.33 11.5088 13.6V15.86C11.5088 16.1252 11.4034 16.3796 11.2159 16.5671C11.0284 16.7546 10.774 16.86 10.5088 16.86H4.50879C4.24357 16.86 3.98922 16.7546 3.80168 16.5671C3.61415 16.3796 3.50879 16.1252 3.50879 15.86V13.6C1.69879 12.33 0.508789 10.24 0.508789 7.85999C0.508789 6.00347 1.24629 4.22299 2.55904 2.91024C3.8718 1.59748 5.65227 0.859985 7.50879 0.859985ZM4.50879 19.86V18.86H10.5088V19.86C10.5088 20.1252 10.4034 20.3796 10.2159 20.5671C10.0284 20.7546 9.77401 20.86 9.50879 20.86H5.50879C5.24357 20.86 4.98922 20.7546 4.80168 20.5671C4.61415 20.3796 4.50879 20.1252 4.50879 19.86ZM7.50879 2.85999C6.18271 2.85999 4.91094 3.38677 3.97326 4.32445C3.03557 5.26213 2.50879 6.5339 2.50879 7.85999C2.50879 9.90999 3.73879 11.67 5.50879 12.44V14.86H9.50879V12.44C11.2788 11.67 12.5088 9.90999 12.5088 7.85999C12.5088 6.5339 11.982 5.26213 11.0443 4.32445C10.1066 3.38677 8.83487 2.85999 7.50879 2.85999Z" fill="white"/>
</svg>
