<svg width="20" height="21" viewBox="0 0 20 21" fill="none" xmlns="http://www.w3.org/2000/svg">
<path d="M12.1292 20.86H8.37924C8.12924 20.86 7.91258 20.7767 7.72924 20.61C7.54591 20.4433 7.43758 20.235 7.40424 19.985L7.10424 17.66C6.88758 17.5767 6.68358 17.4767 6.49224 17.36C6.30024 17.2433 6.11258 17.1183 5.92924 16.985L3.75424 17.885C3.52091 17.9683 3.28758 17.9767 3.05424 17.91C2.82091 17.8433 2.63758 17.7017 2.50424 17.485L0.654244 14.26C0.52091 14.0433 0.479244 13.81 0.529244 13.56C0.579244 13.31 0.704244 13.11 0.904244 12.96L2.77924 11.535C2.76258 11.4183 2.75424 11.3057 2.75424 11.197V10.522C2.75424 10.414 2.76258 10.3017 2.77924 10.185L0.904244 8.75998C0.704244 8.60998 0.579244 8.40999 0.529244 8.15999C0.479244 7.90999 0.52091 7.67665 0.654244 7.45999L2.50424 4.23499C2.62091 4.00165 2.79991 3.85565 3.04124 3.79699C3.28324 3.73899 3.52091 3.75165 3.75424 3.83499L5.92924 4.73499C6.11258 4.60165 6.30424 4.47665 6.50424 4.35999C6.70424 4.24332 6.90424 4.14332 7.10424 4.05999L7.40424 1.73499C7.43758 1.48499 7.54591 1.27665 7.72924 1.10999C7.91258 0.943319 8.12924 0.859985 8.37924 0.859985H12.1292C12.3792 0.859985 12.5959 0.943319 12.7792 1.10999C12.9626 1.27665 13.0709 1.48499 13.1042 1.73499L13.4042 4.05999C13.6209 4.14332 13.8252 4.24332 14.0172 4.35999C14.2086 4.47665 14.3959 4.60165 14.5792 4.73499L16.7542 3.83499C16.9876 3.75165 17.2209 3.74332 17.4542 3.80999C17.6876 3.87665 17.8709 4.01832 18.0042 4.23499L19.8542 7.45999C19.9876 7.67665 20.0292 7.90999 19.9792 8.15999C19.9292 8.40999 19.8042 8.60998 19.6042 8.75998L17.7292 10.185C17.7459 10.3017 17.7542 10.414 17.7542 10.522V11.197C17.7542 11.3057 17.7376 11.4183 17.7042 11.535L19.5792 12.96C19.7792 13.11 19.9042 13.31 19.9542 13.56C20.0042 13.81 19.9626 14.0433 19.8292 14.26L17.9792 17.46C17.8459 17.6767 17.6586 17.8227 17.4172 17.898C17.1752 17.9727 16.9376 17.9683 16.7042 17.885L14.5792 16.985C14.3959 17.1183 14.2042 17.2433 14.0042 17.36C13.8042 17.4767 13.6042 17.5767 13.4042 17.66L13.1042 19.985C13.0709 20.235 12.9626 20.4433 12.7792 20.61C12.5959 20.7767 12.3792 20.86 12.1292 20.86ZM10.3042 14.36C11.2709 14.36 12.0959 14.0183 12.7792 13.335C13.4626 12.6517 13.8042 11.8267 13.8042 10.86C13.8042 9.89332 13.4626 9.06832 12.7792 8.38498C12.0959 7.70165 11.2709 7.35999 10.3042 7.35999C9.32091 7.35999 8.49158 7.70165 7.81624 8.38498C7.14158 9.06832 6.80424 9.89332 6.80424 10.86C6.80424 11.8267 7.14158 12.6517 7.81624 13.335C8.49158 14.0183 9.32091 14.36 10.3042 14.36ZM10.3042 12.36C9.88758 12.36 9.53358 12.214 9.24224 11.922C8.95024 11.6307 8.80424 11.2767 8.80424 10.86C8.80424 10.4433 8.95024 10.0893 9.24224 9.79799C9.53358 9.50599 9.88758 9.35999 10.3042 9.35999C10.7209 9.35999 11.0752 9.50599 11.3672 9.79799C11.6586 10.0893 11.8042 10.4433 11.8042 10.86C11.8042 11.2767 11.6586 11.6307 11.3672 11.922C11.0752 12.214 10.7209 12.36 10.3042 12.36ZM9.25424 18.86H11.2292L11.5792 16.21C12.0959 16.0767 12.5752 15.8807 13.0172 15.622C13.4586 15.364 13.8626 15.0517 14.2292 14.685L16.7042 15.71L17.6792 14.01L15.5292 12.385C15.6126 12.1517 15.6709 11.9057 15.7042 11.647C15.7376 11.389 15.7542 11.1267 15.7542 10.86C15.7542 10.5933 15.7376 10.3307 15.7042 10.072C15.6709 9.81398 15.6126 9.56832 15.5292 9.33499L17.6792 7.70999L16.7042 6.00999L14.2292 7.05999C13.8626 6.67665 13.4586 6.35565 13.0172 6.09699C12.5752 5.83899 12.0959 5.64332 11.5792 5.50999L11.2542 2.85999H9.27924L8.92924 5.50999C8.41258 5.64332 7.93358 5.83899 7.49224 6.09699C7.05024 6.35565 6.64591 6.66832 6.27924 7.03499L3.80424 6.00999L2.82924 7.70999L4.97924 9.30999C4.89591 9.55999 4.83758 9.80999 4.80424 10.06C4.77091 10.31 4.75424 10.5767 4.75424 10.86C4.75424 11.1267 4.77091 11.385 4.80424 11.635C4.83758 11.885 4.89591 12.135 4.97924 12.385L2.82924 14.01L3.80424 15.71L6.27924 14.66C6.64591 15.0433 7.05024 15.364 7.49224 15.622C7.93358 15.8807 8.41258 16.0767 8.92924 16.21L9.25424 18.86Z" fill="white"/>
</svg>
