<svg width="13" height="17" viewBox="0 0 13 17" fill="none" xmlns="http://www.w3.org/2000/svg">
<path d="M8.20888 13.7939V8.49989C8.20888 8.25698 8.29118 8.05323 8.45579 7.88862C8.61982 7.72459 8.82329 7.64257 9.0662 7.64257C9.30911 7.64257 9.51287 7.72459 9.67747 7.88862C9.84151 8.05323 9.92353 8.25698 9.92353 8.49989V13.7939L11.531 12.1864C11.6882 12.0292 11.8845 11.9469 12.12 11.9395C12.356 11.9326 12.5598 12.0149 12.7313 12.1864C12.9027 12.3436 12.9922 12.5399 12.9996 12.7754C13.0065 13.0114 12.9242 13.2152 12.7527 13.3866L9.66633 16.473C9.5806 16.5587 9.48772 16.6193 9.3877 16.6548C9.28768 16.6908 9.18051 16.7088 9.0662 16.7088C8.95189 16.7088 8.84473 16.6908 8.74471 16.6548C8.64468 16.6193 8.55181 16.5587 8.46607 16.473L5.37971 13.3866C5.22253 13.2295 5.14394 13.0331 5.14394 12.7977C5.14394 12.5616 5.22968 12.3578 5.40114 12.1864C5.57261 12.0292 5.77265 11.9469 6.00127 11.9395C6.22989 11.9326 6.42993 12.0149 6.6014 12.1864L8.20888 13.7939ZM3.06493 3.20592L1.45745 4.8134C1.2717 4.99915 1.06451 5.08489 0.835891 5.0706C0.607271 5.05631 0.414373 4.97058 0.257197 4.8134C0.0857322 4.64193 0 4.43818 0 4.20213C0 3.96665 0.0785877 3.77032 0.235764 3.61315L3.32213 0.52678C3.40786 0.441047 3.50074 0.380177 3.60076 0.34417C3.70078 0.308734 3.80795 0.291016 3.92226 0.291016C4.03657 0.291016 4.14373 0.308734 4.24375 0.34417C4.34378 0.380177 4.43665 0.441047 4.52238 0.52678L7.60875 3.61315C7.76593 3.77032 7.84451 3.97036 7.84451 4.21327C7.84451 4.45618 7.76593 4.65622 7.60875 4.8134C7.43729 4.98486 7.23381 5.0706 6.99834 5.0706C6.76229 5.0706 6.55853 4.98486 6.38706 4.8134L4.77958 3.20592V8.49989C4.77958 8.7428 4.69756 8.94627 4.53353 9.11031C4.36892 9.27491 4.16517 9.35722 3.92226 9.35722C3.67935 9.35722 3.47588 9.27491 3.31184 9.11031C3.14724 8.94627 3.06493 8.7428 3.06493 8.49989V3.20592Z" fill="white"/>
</svg>
