<svg width="14" height="14" viewBox="0 0 14 14" fill="none" xmlns="http://www.w3.org/2000/svg">
<path d="M9.16667 13.72C8.76944 13.72 8.42952 13.5787 8.14689 13.2961C7.86378 13.0129 7.72222 12.6728 7.72222 12.2756V2.16445C7.72222 1.76722 7.86378 1.42706 8.14689 1.14395C8.42952 0.861316 8.76944 0.720001 9.16667 0.720001H12.0556C12.4528 0.720001 12.7929 0.861316 13.0761 1.14395C13.3587 1.42706 13.5 1.76722 13.5 2.16445V12.2756C13.5 12.6728 13.3587 13.0129 13.0761 13.2961C12.7929 13.5787 12.4528 13.72 12.0556 13.72H9.16667ZM1.94444 13.72C1.54722 13.72 1.20706 13.5787 0.923944 13.2961C0.641315 13.0129 0.5 12.6728 0.5 12.2756V2.16445C0.5 1.76722 0.641315 1.42706 0.923944 1.14395C1.20706 0.861316 1.54722 0.720001 1.94444 0.720001H4.83333C5.23056 0.720001 5.57072 0.861316 5.85383 1.14395C6.13646 1.42706 6.27778 1.76722 6.27778 2.16445V12.2756C6.27778 12.6728 6.13646 13.0129 5.85383 13.2961C5.57072 13.5787 5.23056 13.72 4.83333 13.72H1.94444Z" fill="white"/>
</svg>
